<?xml version="1.0" encoding="UTF-8" standalone="no"?>
<svg
   width="24"
   height="24"
   version="1.1"
   id="svg2"
   sodipodi:docname="audio-volume-muted-symbolic.svg"
   inkscape:version="1.3.2 (091e20ef0f, 2023-11-25, custom)"
   xmlns:inkscape="http://www.inkscape.org/namespaces/inkscape"
   xmlns:sodipodi="http://sodipodi.sourceforge.net/DTD/sodipodi-0.dtd"
   xmlns="http://www.w3.org/2000/svg"
   xmlns:svg="http://www.w3.org/2000/svg">
  <defs
     id="defs2" />
  <sodipodi:namedview
     id="namedview2"
     pagecolor="#c8c8c8"
     bordercolor="#000000"
     borderopacity="0.25"
     inkscape:showpageshadow="2"
     inkscape:pageopacity="0.0"
     inkscape:pagecheckerboard="0"
     inkscape:deskcolor="#d1d1d1"
     inkscape:zoom="7.7916667"
     inkscape:cx="-14.823529"
     inkscape:cy="14.245989"
     inkscape:window-width="1920"
     inkscape:window-height="955"
     inkscape:window-x="0"
     inkscape:window-y="34"
     inkscape:window-maximized="1"
     inkscape:current-layer="svg2" />
  <g
     id="16-16-audio-volume-muted"
     transform="matrix(1.25,0,0,1.25,-73,111.46667)"
     style="opacity:0.35">
    <rect
       class="ColorScheme-Text"
       x="60"
       y="-87.573334"
       width="16"
       height="16"
       ry="0"
       fill="currentColor"
       opacity="0"
       id="rect9101"
       style="color:#dedede" />
    <path
       id="path9105"
       style="fill:#ffffff;fill-opacity:1;stroke-width:0.648536"
       d="m 66.326172,-84.675781 c -0.290674,0 -0.495244,0.131175 -0.814453,0.421875 l -1.027344,0.910156 0.71875,0.71875 0.617187,-0.5625 c 0.02847,-0.0228 0.05567,-0.04102 0.08984,-0.04102 0.04559,0 0.08008,0.02878 0.08008,0.08008 v 1.310547 L 67.080078,-80.75 v -3.158203 c 0,-0.427503 -0.320684,-0.767579 -0.753906,-0.767578 z M 60.421875,-81.75 C 60.142348,-81.532502 60,-81.170447 60,-80.660156 v 2.189453 c 0,0.894915 0.433576,1.333983 1.271484,1.333984 h 1.613282 c 0.0456,0 0.0908,0.01074 0.125,0.04492 l 2.501953,2.234375 c 0.296381,0.267911 0.524083,0.394531 0.826172,0.394531 0.3864,0 0.686516,-0.269284 0.734375,-0.638671 l -1.082032,-1.082032 v 0.189453 c 0,0.05701 -0.03433,0.08203 -0.07422,0.08203 -0.03418,0 -0.06153,-0.0086 -0.0957,-0.03711 l -2.269531,-2.058593 c -0.131102,-0.11972 -0.244539,-0.146486 -0.398437,-0.146485 h -1.779297 c -0.188102,0 -0.279297,-0.09122 -0.279297,-0.279297 v -2.251953 c 0,-0.134622 0.04483,-0.218339 0.134766,-0.257812 z" />
    <path
       style="color:#000000;fill:#ffffff;fill-rule:evenodd;stroke-width:3;stroke-linecap:round;stroke-linejoin:round;-inkscape-stroke:none;paint-order:stroke fill markers"
       d="m 60.854016,-84.8531 9.899495,9.899495 c 0.195868,0.195868 0.195868,0.511238 0,0.707106 -0.195869,0.195869 -0.511238,0.195869 -0.707107,0 l -9.899495,-9.899494 c -0.195868,-0.195869 -0.195868,-0.511239 0,-0.707107 0.195869,-0.195869 0.511239,-0.195869 0.707107,0 z"
       id="path9608" />
  </g>
</svg>
